<mxfile host="Electron" modified="2023-04-22T17:27:53.751Z" agent="Mozilla/5.0 (Windows NT 10.0; Win64; x64) AppleWebKit/537.36 (KHTML, like Gecko) draw.io/21.1.2 Chrome/106.0.5249.199 Electron/21.4.3 Safari/537.36" etag="kJMX_tLHgGNpyT_HO8pd" version="21.1.2" type="device">
  <diagram id="5rwaiKbXUgmin0ZkIKxY" name="Page-1">
    <mxGraphModel dx="2060" dy="1181" grid="1" gridSize="10" guides="1" tooltips="1" connect="1" arrows="1" fold="1" page="1" pageScale="1" pageWidth="1169" pageHeight="827" math="0" shadow="0">
      <root>
        <mxCell id="0" />
        <mxCell id="1" parent="0" />
        <mxCell id="Fh091kdzQL0ayFXfkAHO-1" value="Raspberry Pi" style="rounded=0;whiteSpace=wrap;html=1;fillColor=#dae8fc;strokeColor=#6c8ebf;" parent="1" vertex="1">
          <mxGeometry x="400" y="230" width="120" height="60" as="geometry" />
        </mxCell>
        <mxCell id="Fh091kdzQL0ayFXfkAHO-2" value="Heizungs Platine" style="rounded=0;whiteSpace=wrap;html=1;fillColor=#ffe6cc;strokeColor=#d79b00;" parent="1" vertex="1">
          <mxGeometry x="680" y="230" width="120" height="60" as="geometry" />
        </mxCell>
        <mxCell id="Fh091kdzQL0ayFXfkAHO-4" value="Touch Screen" style="rounded=1;whiteSpace=wrap;html=1;fillColor=#dae8fc;strokeColor=#6c8ebf;" parent="1" vertex="1">
          <mxGeometry x="190" y="350" width="120" height="60" as="geometry" />
        </mxCell>
        <mxCell id="Fh091kdzQL0ayFXfkAHO-5" value="USB Memory" style="rounded=1;whiteSpace=wrap;html=1;" parent="1" vertex="1">
          <mxGeometry x="190" y="190" width="120" height="60" as="geometry" />
        </mxCell>
        <mxCell id="Fh091kdzQL0ayFXfkAHO-6" value="LAN" style="rounded=1;whiteSpace=wrap;html=1;" parent="1" vertex="1">
          <mxGeometry x="190" y="110" width="120" height="60" as="geometry" />
        </mxCell>
        <mxCell id="Fh091kdzQL0ayFXfkAHO-7" value="Keyboard / Mouse" style="rounded=1;whiteSpace=wrap;html=1;" parent="1" vertex="1">
          <mxGeometry x="190" y="270" width="120" height="60" as="geometry" />
        </mxCell>
        <mxCell id="Fh091kdzQL0ayFXfkAHO-8" value="Power Supply" style="ellipse;whiteSpace=wrap;html=1;fillColor=#f8cecc;strokeColor=#b85450;" parent="1" vertex="1">
          <mxGeometry x="190" y="510" width="120" height="80" as="geometry" />
        </mxCell>
        <mxCell id="Fh091kdzQL0ayFXfkAHO-9" value="Power Supply" style="ellipse;whiteSpace=wrap;html=1;fillColor=#f8cecc;strokeColor=#b85450;" parent="1" vertex="1">
          <mxGeometry x="400" y="510" width="120" height="80" as="geometry" />
        </mxCell>
        <mxCell id="Fh091kdzQL0ayFXfkAHO-10" value="Power Supply" style="ellipse;whiteSpace=wrap;html=1;fillColor=#f8cecc;strokeColor=#b85450;" parent="1" vertex="1">
          <mxGeometry x="680" y="510" width="120" height="80" as="geometry" />
        </mxCell>
        <mxCell id="Fh091kdzQL0ayFXfkAHO-11" value="" style="endArrow=none;html=1;entryX=0.5;entryY=1;entryDx=0;entryDy=0;" parent="1" source="Fh091kdzQL0ayFXfkAHO-8" target="Fh091kdzQL0ayFXfkAHO-4" edge="1">
          <mxGeometry width="50" height="50" relative="1" as="geometry">
            <mxPoint x="390" y="610" as="sourcePoint" />
            <mxPoint x="440" y="560" as="targetPoint" />
          </mxGeometry>
        </mxCell>
        <mxCell id="Fh091kdzQL0ayFXfkAHO-16" value="" style="endArrow=none;html=1;entryX=0.5;entryY=1;entryDx=0;entryDy=0;startArrow=none;" parent="1" source="Fh091kdzQL0ayFXfkAHO-25" target="Fh091kdzQL0ayFXfkAHO-1" edge="1">
          <mxGeometry width="50" height="50" relative="1" as="geometry">
            <mxPoint x="470" y="400" as="sourcePoint" />
            <mxPoint x="470" y="310" as="targetPoint" />
          </mxGeometry>
        </mxCell>
        <mxCell id="Fh091kdzQL0ayFXfkAHO-17" value="" style="endArrow=none;html=1;entryX=0.5;entryY=1;entryDx=0;entryDy=0;exitX=0.5;exitY=0;exitDx=0;exitDy=0;" parent="1" source="Fh091kdzQL0ayFXfkAHO-10" target="Fh091kdzQL0ayFXfkAHO-2" edge="1">
          <mxGeometry width="50" height="50" relative="1" as="geometry">
            <mxPoint x="730" y="490" as="sourcePoint" />
            <mxPoint x="750" y="330" as="targetPoint" />
          </mxGeometry>
        </mxCell>
        <mxCell id="Fh091kdzQL0ayFXfkAHO-21" value="" style="endArrow=classic;startArrow=classic;html=1;exitX=1;exitY=0.5;exitDx=0;exitDy=0;" parent="1" source="Fh091kdzQL0ayFXfkAHO-4" edge="1">
          <mxGeometry width="50" height="50" relative="1" as="geometry">
            <mxPoint x="340" y="390" as="sourcePoint" />
            <mxPoint x="420" y="290" as="targetPoint" />
            <Array as="points">
              <mxPoint x="420" y="380" />
            </Array>
          </mxGeometry>
        </mxCell>
        <mxCell id="Fh091kdzQL0ayFXfkAHO-22" value="" style="endArrow=classic;startArrow=classic;html=1;entryX=0;entryY=0.5;entryDx=0;entryDy=0;" parent="1" target="Fh091kdzQL0ayFXfkAHO-1" edge="1">
          <mxGeometry width="50" height="50" relative="1" as="geometry">
            <mxPoint x="310" y="300" as="sourcePoint" />
            <mxPoint x="360" y="260" as="targetPoint" />
          </mxGeometry>
        </mxCell>
        <mxCell id="Fh091kdzQL0ayFXfkAHO-23" value="" style="endArrow=classic;startArrow=classic;html=1;exitX=1;exitY=0.5;exitDx=0;exitDy=0;" parent="1" source="Fh091kdzQL0ayFXfkAHO-5" edge="1">
          <mxGeometry width="50" height="50" relative="1" as="geometry">
            <mxPoint x="330" y="220" as="sourcePoint" />
            <mxPoint x="400" y="250" as="targetPoint" />
          </mxGeometry>
        </mxCell>
        <mxCell id="Fh091kdzQL0ayFXfkAHO-24" value="" style="endArrow=classic;startArrow=classic;html=1;exitX=1;exitY=0.5;exitDx=0;exitDy=0;entryX=0.193;entryY=-0.001;entryDx=0;entryDy=0;entryPerimeter=0;" parent="1" source="Fh091kdzQL0ayFXfkAHO-6" target="Fh091kdzQL0ayFXfkAHO-1" edge="1">
          <mxGeometry width="50" height="50" relative="1" as="geometry">
            <mxPoint x="370" y="200" as="sourcePoint" />
            <mxPoint x="420" y="150" as="targetPoint" />
            <Array as="points">
              <mxPoint x="423" y="140" />
            </Array>
          </mxGeometry>
        </mxCell>
        <mxCell id="Fh091kdzQL0ayFXfkAHO-25" value="Strom Pi" style="rounded=0;whiteSpace=wrap;html=1;fillColor=#d5e8d4;strokeColor=#82b366;" parent="1" vertex="1">
          <mxGeometry x="400" y="410" width="120" height="60" as="geometry" />
        </mxCell>
        <mxCell id="Fh091kdzQL0ayFXfkAHO-26" value="" style="endArrow=none;html=1;entryX=0.5;entryY=1;entryDx=0;entryDy=0;" parent="1" source="Fh091kdzQL0ayFXfkAHO-9" target="Fh091kdzQL0ayFXfkAHO-25" edge="1">
          <mxGeometry width="50" height="50" relative="1" as="geometry">
            <mxPoint x="460" y="510" as="sourcePoint" />
            <mxPoint x="460" y="290" as="targetPoint" />
          </mxGeometry>
        </mxCell>
        <mxCell id="Fh091kdzQL0ayFXfkAHO-34" value="RS 232" style="endArrow=classic;startArrow=classic;html=1;entryX=0;entryY=0.25;entryDx=0;entryDy=0;exitX=1;exitY=0.25;exitDx=0;exitDy=0;" parent="1" source="Fh091kdzQL0ayFXfkAHO-1" target="Fh091kdzQL0ayFXfkAHO-2" edge="1">
          <mxGeometry width="50" height="50" relative="1" as="geometry">
            <mxPoint x="390" y="610" as="sourcePoint" />
            <mxPoint x="440" y="560" as="targetPoint" />
          </mxGeometry>
        </mxCell>
        <mxCell id="Fh091kdzQL0ayFXfkAHO-35" value="3 x GPIO" style="endArrow=classic;startArrow=classic;html=1;dashed=1;dashPattern=1 2;" parent="1" edge="1">
          <mxGeometry width="50" height="50" relative="1" as="geometry">
            <mxPoint x="520" y="260" as="sourcePoint" />
            <mxPoint x="680" y="260" as="targetPoint" />
          </mxGeometry>
        </mxCell>
        <mxCell id="Fh091kdzQL0ayFXfkAHO-36" value="SPI" style="endArrow=classic;startArrow=classic;html=1;exitX=1;exitY=0.75;exitDx=0;exitDy=0;dashed=1;dashPattern=1 2;" parent="1" source="Fh091kdzQL0ayFXfkAHO-1" edge="1">
          <mxGeometry width="50" height="50" relative="1" as="geometry">
            <mxPoint x="540" y="265" as="sourcePoint" />
            <mxPoint x="680" y="275" as="targetPoint" />
          </mxGeometry>
        </mxCell>
        <mxCell id="Fh091kdzQL0ayFXfkAHO-37" value="230 Volt" style="ellipse;whiteSpace=wrap;html=1;fillColor=#d80073;strokeColor=#A50040;fontColor=#ffffff;" parent="1" vertex="1">
          <mxGeometry x="840" y="447" width="120" height="80" as="geometry" />
        </mxCell>
        <mxCell id="Fh091kdzQL0ayFXfkAHO-38" value="" style="endArrow=none;html=1;entryX=0;entryY=0.5;entryDx=0;entryDy=0;exitX=0.75;exitY=1;exitDx=0;exitDy=0;" parent="1" source="Fh091kdzQL0ayFXfkAHO-2" target="Fh091kdzQL0ayFXfkAHO-37" edge="1">
          <mxGeometry width="50" height="50" relative="1" as="geometry">
            <mxPoint x="390" y="640" as="sourcePoint" />
            <mxPoint x="440" y="590" as="targetPoint" />
            <Array as="points">
              <mxPoint x="770" y="487" />
            </Array>
          </mxGeometry>
        </mxCell>
        <mxCell id="Fh091kdzQL0ayFXfkAHO-42" value="" style="endArrow=classic;html=1;entryX=0.171;entryY=-0.034;entryDx=0;entryDy=0;entryPerimeter=0;" parent="1" target="Fh091kdzQL0ayFXfkAHO-2" edge="1">
          <mxGeometry width="50" height="50" relative="1" as="geometry">
            <mxPoint x="701" y="110" as="sourcePoint" />
            <mxPoint x="440" y="590" as="targetPoint" />
          </mxGeometry>
        </mxCell>
        <mxCell id="Fh091kdzQL0ayFXfkAHO-43" value="ADC / Temperatures 1..16" style="text;html=1;strokeColor=none;fillColor=none;align=center;verticalAlign=middle;whiteSpace=wrap;rounded=0;" parent="1" vertex="1">
          <mxGeometry x="665" y="80" width="150" height="20" as="geometry" />
        </mxCell>
        <mxCell id="Fh091kdzQL0ayFXfkAHO-44" value="" style="endArrow=classic;html=1;entryX=0.5;entryY=0;entryDx=0;entryDy=0;" parent="1" target="Fh091kdzQL0ayFXfkAHO-2" edge="1">
          <mxGeometry width="50" height="50" relative="1" as="geometry">
            <mxPoint x="740" y="110" as="sourcePoint" />
            <mxPoint x="740" y="220" as="targetPoint" />
          </mxGeometry>
        </mxCell>
        <mxCell id="Fh091kdzQL0ayFXfkAHO-45" value="" style="endArrow=classic;html=1;entryX=0.171;entryY=-0.034;entryDx=0;entryDy=0;entryPerimeter=0;" parent="1" edge="1">
          <mxGeometry width="50" height="50" relative="1" as="geometry">
            <mxPoint x="780.48" y="112.03999999999999" as="sourcePoint" />
            <mxPoint x="780" y="230.00000000000003" as="targetPoint" />
          </mxGeometry>
        </mxCell>
        <mxCell id="Fh091kdzQL0ayFXfkAHO-46" value="" style="endArrow=classic;html=1;exitX=1;exitY=0.25;exitDx=0;exitDy=0;" parent="1" source="Fh091kdzQL0ayFXfkAHO-2" edge="1">
          <mxGeometry width="50" height="50" relative="1" as="geometry">
            <mxPoint x="830" y="260" as="sourcePoint" />
            <mxPoint x="880" y="245" as="targetPoint" />
          </mxGeometry>
        </mxCell>
        <mxCell id="Fh091kdzQL0ayFXfkAHO-47" value="" style="endArrow=classic;html=1;exitX=1;exitY=0.5;exitDx=0;exitDy=0;" parent="1" source="Fh091kdzQL0ayFXfkAHO-2" edge="1">
          <mxGeometry width="50" height="50" relative="1" as="geometry">
            <mxPoint x="810" y="255" as="sourcePoint" />
            <mxPoint x="880" y="260" as="targetPoint" />
          </mxGeometry>
        </mxCell>
        <mxCell id="Fh091kdzQL0ayFXfkAHO-48" value="" style="endArrow=classic;html=1;exitX=1;exitY=0.75;exitDx=0;exitDy=0;" parent="1" source="Fh091kdzQL0ayFXfkAHO-2" edge="1">
          <mxGeometry width="50" height="50" relative="1" as="geometry">
            <mxPoint x="820" y="270" as="sourcePoint" />
            <mxPoint x="880" y="275" as="targetPoint" />
          </mxGeometry>
        </mxCell>
        <mxCell id="Fh091kdzQL0ayFXfkAHO-49" value="Relais 1..12" style="text;html=1;strokeColor=none;fillColor=none;align=center;verticalAlign=middle;whiteSpace=wrap;rounded=0;" parent="1" vertex="1">
          <mxGeometry x="890" y="250" width="90" height="20" as="geometry" />
        </mxCell>
        <mxCell id="Fh091kdzQL0ayFXfkAHO-50" value="" style="group" parent="1" vertex="1" connectable="0">
          <mxGeometry x="340" y="470" width="40" height="68.5" as="geometry" />
        </mxCell>
        <mxCell id="Fh091kdzQL0ayFXfkAHO-27" value="" style="html=1;verticalLabelPosition=bottom;align=center;labelBackgroundColor=#ffffff;verticalAlign=top;strokeWidth=2;strokeColor=#0080F0;shadow=0;dashed=0;shape=mxgraph.ios7.icons.battery;rotation=-90;" parent="Fh091kdzQL0ayFXfkAHO-50" vertex="1">
          <mxGeometry y="13.5" width="39" height="12" as="geometry" />
        </mxCell>
        <mxCell id="Fh091kdzQL0ayFXfkAHO-33" value="Battery" style="text;html=1;strokeColor=none;fillColor=none;align=center;verticalAlign=middle;whiteSpace=wrap;rounded=0;" parent="Fh091kdzQL0ayFXfkAHO-50" vertex="1">
          <mxGeometry y="38.5" width="40" height="30" as="geometry" />
        </mxCell>
        <mxCell id="Fh091kdzQL0ayFXfkAHO-52" value="" style="endArrow=none;html=1;exitX=1.1;exitY=0.506;exitDx=0;exitDy=0;exitPerimeter=0;entryX=0;entryY=0.5;entryDx=0;entryDy=0;" parent="1" source="Fh091kdzQL0ayFXfkAHO-27" target="Fh091kdzQL0ayFXfkAHO-25" edge="1">
          <mxGeometry width="50" height="50" relative="1" as="geometry">
            <mxPoint x="380" y="470" as="sourcePoint" />
            <mxPoint x="380" y="430" as="targetPoint" />
            <Array as="points">
              <mxPoint x="360" y="440" />
            </Array>
          </mxGeometry>
        </mxCell>
        <mxCell id="Fh091kdzQL0ayFXfkAHO-53" value="Relais" style="rounded=0;whiteSpace=wrap;html=1;fillColor=#f5f5f5;strokeColor=#666666;dashed=1;dashPattern=1 2;fontColor=#333333;" parent="1" vertex="1">
          <mxGeometry x="545" y="410" width="120" height="60" as="geometry" />
        </mxCell>
        <mxCell id="Fh091kdzQL0ayFXfkAHO-54" value="" style="endArrow=classic;html=1;entryX=0.5;entryY=0;entryDx=0;entryDy=0;exitX=0.75;exitY=1;exitDx=0;exitDy=0;dashed=1;dashPattern=1 2;" parent="1" source="Fh091kdzQL0ayFXfkAHO-1" target="Fh091kdzQL0ayFXfkAHO-53" edge="1">
          <mxGeometry width="50" height="50" relative="1" as="geometry">
            <mxPoint x="270" y="360" as="sourcePoint" />
            <mxPoint x="320" y="310" as="targetPoint" />
            <Array as="points">
              <mxPoint x="490" y="380" />
              <mxPoint x="605" y="380" />
            </Array>
          </mxGeometry>
        </mxCell>
        <mxCell id="Fh091kdzQL0ayFXfkAHO-56" value="" style="endArrow=classic;html=1;entryX=0;entryY=0.5;entryDx=0;entryDy=0;exitX=0.5;exitY=1;exitDx=0;exitDy=0;dashed=1;dashPattern=1 4;" parent="1" source="Fh091kdzQL0ayFXfkAHO-53" target="Fh091kdzQL0ayFXfkAHO-10" edge="1">
          <mxGeometry width="50" height="50" relative="1" as="geometry">
            <mxPoint x="270" y="360" as="sourcePoint" />
            <mxPoint x="320" y="310" as="targetPoint" />
            <Array as="points">
              <mxPoint x="605" y="550" />
            </Array>
          </mxGeometry>
        </mxCell>
        <mxCell id="PZIhQGH0S9CLJdP6aAKR-1" value="" style="endArrow=classic;html=1;rounded=1;entryX=0.873;entryY=1.02;entryDx=0;entryDy=0;entryPerimeter=0;endFill=1;startArrow=classic;startFill=1;" parent="1" target="Fh091kdzQL0ayFXfkAHO-2" edge="1">
          <mxGeometry width="50" height="50" relative="1" as="geometry">
            <mxPoint x="880" y="320" as="sourcePoint" />
            <mxPoint x="610" y="580" as="targetPoint" />
            <Array as="points">
              <mxPoint x="785" y="320" />
            </Array>
          </mxGeometry>
        </mxCell>
        <mxCell id="PZIhQGH0S9CLJdP6aAKR-2" value="Input/Output 1..4" style="text;html=1;strokeColor=none;fillColor=none;align=center;verticalAlign=middle;whiteSpace=wrap;rounded=0;" parent="1" vertex="1">
          <mxGeometry x="890" y="310" width="120" height="20" as="geometry" />
        </mxCell>
      </root>
    </mxGraphModel>
  </diagram>
</mxfile>
